<svg id="Layer_1" data-name="Layer 1" xmlns="http://www.w3.org/2000/svg" viewBox="0 0 386.7 458.7"><defs><style>.cls-1{opacity:0.5;}</style></defs><g class="cls-1"><path d="M219,416.6a135.6,135.6,0,0,1-101.6-98.1c-15.2-57.7,9.9-118.4,59.5-149.3l-58.7-27.4C63.4,192.3,40.3,272.4,65.6,346.6A193.3,193.3,0,0,0,273.7,476h0A70.6,70.6,0,0,0,219,416.6Z" transform="translate(-55.4 -19)"/><path d="M430.4,218.2A193.5,193.5,0,0,0,257.2,91.1L229.7,150c62.1-8.8,124.2,26.7,146.5,87.9a136,136,0,0,1-20.4,129.5c-17.9,23.2-18.9,55.3-3.2,80h0C427.4,399.8,461.9,305,430.4,218.2Z" transform="translate(-55.4 -19)"/><polygon points="205.8 24.7 152.9 0 53.8 36 29.2 88.9 149.6 145.1 205.8 24.7"/></g></svg>